<?xml version="1.0" encoding="UTF-8" standalone="no"?>
<!-- Created with Inkscape (http://www.inkscape.org/) -->

<svg
   width="816.18707"
   height="181.41733"
   viewBox="0 0 215.94949 48.000001"
   version="1.1"
   id="svg5"
   inkscape:version="1.2.1 (9c6d41e410, 2022-07-14)"
   sodipodi:docname="autospeck-belts-centre-logo.svg"
   xmlns:inkscape="http://www.inkscape.org/namespaces/inkscape"
   xmlns:sodipodi="http://sodipodi.sourceforge.net/DTD/sodipodi-0.dtd"
   xmlns="http://www.w3.org/2000/svg"
   xmlns:svg="http://www.w3.org/2000/svg">
  <sodipodi:namedview
     id="namedview7"
     pagecolor="#ffffff"
     bordercolor="#000000"
     borderopacity="0.25"
     inkscape:showpageshadow="2"
     inkscape:pageopacity="0.0"
     inkscape:pagecheckerboard="0"
     inkscape:deskcolor="#d1d1d1"
     inkscape:document-units="px"
     showgrid="false"
     showguides="true"
     inkscape:zoom="0.60845258"
     inkscape:cx="212.83499"
     inkscape:cy="-16.435135"
     inkscape:window-width="1600"
     inkscape:window-height="837"
     inkscape:window-x="-8"
     inkscape:window-y="-8"
     inkscape:window-maximized="1"
     inkscape:current-layer="g3587">
    <sodipodi:guide
       position="-20.553033,23.71036"
       orientation="0,-1"
       id="guide1042"
       inkscape:locked="false" />
  </sodipodi:namedview>
  <defs
     id="defs2">
    <rect
       x="372.4657"
       y="585.13727"
       width="276.00812"
       height="51.134136"
       id="rect3395" />
    <inkscape:path-effect
       effect="powermask"
       id="path-effect1021"
       is_visible="true"
       lpeversion="1"
       uri="#mask-powermask-path-effect1021"
       invert="false"
       hide_mask="false"
       background="false"
       background_color="#ffffffff" />
    <inkscape:path-effect
       effect="powermask"
       id="path-effect955"
       is_visible="true"
       lpeversion="1"
       uri="#mask-powermask-path-effect955"
       invert="false"
       hide_mask="false"
       background="false"
       background_color="#ffffffff" />
    <mask
       maskUnits="userSpaceOnUse"
       id="mask-powermask-path-effect955">
      <circle
         style="fill:#b447ff;fill-opacity:1;stroke-width:0.237856;stroke-linecap:round;stroke-linejoin:round"
         id="circle953"
         cx="58.03915"
         cy="79.42498"
         r="8.989542" />
    </mask>
    <mask
       maskUnits="userSpaceOnUse"
       id="mask-powermask-path-effect1021">
      <circle
         style="fill:#b447ff;fill-opacity:1;stroke-width:0.148858;stroke-linecap:round;stroke-linejoin:round"
         id="circle1019"
         cx="-123.42338"
         cy="83.6772"
         r="5.6257796" />
    </mask>
    <mask
       maskUnits="userSpaceOnUse"
       id="mask-powermask-path-effect1021-7">
      <path
         id="mask-powermask-path-effect1021_box-8"
         style="fill:#ffffff;fill-opacity:1"
         d="m -138.828,68.358131 h 31.0916 V 99.44973 h -31.0916 z" />
      <circle
         style="fill:#b447ff;fill-opacity:1;stroke-width:0.148858;stroke-linecap:round;stroke-linejoin:round"
         id="circle1019-5"
         cx="-123.42338"
         cy="83.6772"
         r="5.6257796" />
    </mask>
    <inkscape:path-effect
       effect="powermask"
       id="path-effect1021-8"
       is_visible="true"
       lpeversion="1"
       uri="#mask-powermask-path-effect1021-8"
       invert="false"
       hide_mask="false"
       background="false"
       background_color="#ffffffff" />
    <filter
       id="mask-powermask-path-effect1021_inverse-7"
       inkscape:label="filtermask-powermask-path-effect1021"
       style="color-interpolation-filters:sRGB"
       height="100"
       width="100"
       x="-50"
       y="-50">
      <feColorMatrix
         id="mask-powermask-path-effect1021_primitive1-8"
         values="1"
         type="saturate"
         result="fbSourceGraphic" />
      <feColorMatrix
         id="mask-powermask-path-effect1021_primitive2-3"
         values="-1 0 0 0 1 0 -1 0 0 1 0 0 -1 0 1 0 0 0 1 0 "
         in="fbSourceGraphic" />
    </filter>
    <mask
       maskUnits="userSpaceOnUse"
       id="mask-powermask-path-effect1021-8">
      <path
         id="path1365"
         style="fill:#ffffff;fill-opacity:1"
         d="m -138.828,68.358131 h 31.0916 V 99.44973 h -31.0916 z" />
      <circle
         style="fill:#b447ff;fill-opacity:1;stroke-width:0.148858;stroke-linecap:round;stroke-linejoin:round"
         id="circle1367"
         cx="-123.42338"
         cy="83.6772"
         r="5.6257796" />
    </mask>
  </defs>
  <g
     inkscape:label="Layer 1"
     inkscape:groupmode="layer"
     id="layer1"
     transform="translate(0.04831028,-78.409599)">
    <g
       id="g2953">
      <g
         id="g3106">
        <rect
           style="fill:#323232;fill-opacity:1;stroke-width:1.01789;stroke-linecap:round;stroke-linejoin:round"
           id="rect1310"
           width="81.112434"
           height="1.9977492"
           x="5.8092446"
           y="92.586617"
           transform="matrix(0.99408781,-0.10857915,0.02765452,0.99961754,0,0)" />
        <rect
           style="fill:#323232;fill-opacity:1;stroke-width:1.01789;stroke-linecap:round;stroke-linejoin:round"
           id="rect1310-1"
           width="81.112434"
           height="1.9977492"
           x="15.536179"
           y="-113.68309"
           transform="matrix(0.99408781,0.10857915,0.02765452,-0.99961754,0,0)" />
        <circle
           style="fill:none;fill-opacity:1;stroke:#5f3dc4;stroke-width:32;stroke-linecap:round;stroke-linejoin:round;stroke-dasharray:none;stroke-opacity:1"
           id="path3059"
           cx="86.095169"
           cy="102.4096"
           r="8" />
        <circle
           style="fill:none;fill-opacity:1;stroke:#5f3dc4;stroke-width:19;stroke-linecap:round;stroke-linejoin:round;stroke-dasharray:none;stroke-opacity:1"
           id="path3059-3"
           cx="14.45169"
           cy="102.39175"
           r="5" />
      </g>
      <text
         xml:space="preserve"
         transform="scale(0.26458333)"
         id="text3393"
         style="font-size:26.6667px;font-family:'Gill Sans MT Condensed';-inkscape-font-specification:'Gill Sans MT Condensed, Normal';white-space:pre;shape-inside:url(#rect3395);display:inline;fill:#5f3dc4;fill-opacity:1;stroke:none;stroke-width:71.811;stroke-linecap:round;stroke-linejoin:round;stroke-dasharray:none;stroke-opacity:1" />
      <g
         id="g3587"
         transform="translate(0,2.6458334)">
        <g
           aria-label="AUT0SPECK"
           transform="scale(0.95288488,1.0494447)"
           id="text3189"
           style="font-size:26.6559px;font-family:'Rockwell Condensed';-inkscape-font-specification:'Rockwell Condensed, Normal';fill:#5f3dc4;stroke-width:19.9394;stroke-linecap:round;stroke-linejoin:round">
          <path
             d="m 129.6511,87.986044 -0.48158,4.451327 h 1.2495 v 2.368835 h -5.24528 v -2.368835 h 1.22346 l 2.16059,-14.876803 h -1.36664 v -2.368835 h 7.26269 v 2.368835 h -1.36663 l 2.16058,14.876803 h 1.22347 v 2.368835 h -5.24528 v -2.368835 h 1.2495 l -0.48158,-4.451327 z m 0.18221,-2.38185 h 1.97837 l -0.833,-8.733452 h -0.31237 z"
             id="path318" />
          <path
             d="m 137.25219,77.560568 v -2.368835 h 5.29734 v 2.368835 h -1.04124 V 90.14663 q 0,1.418697 0.36443,2.004398 0.36444,0.572686 1.23648,0.572686 0.89808,0 1.2495,-0.585701 0.35142,-0.585701 0.35142,-1.991383 V 77.560568 h -1.01522 v -2.368835 h 4.85481 v 2.368835 h -1.45774 v 12.468921 q 0,2.668193 -1.19744,3.891658 -1.19743,1.210448 -2.96755,1.210448 -1.93932,0 -3.05866,-1.171402 -1.11934,-1.171401 -1.11934,-3.019613 V 77.560568 Z"
             id="path320" />
          <path
             d="m 159.8212,75.191733 v 7.171582 h -2.06948 V 77.26121 h -1.65297 v 15.176161 h 1.54885 v 2.368835 h -5.87003 v -2.368835 h 1.54886 V 77.26121 h -1.65298 v 5.102105 h -2.08249 v -7.171582 z"
             id="path322" />
          <path
             d="m 169.15337,84.966431 q 0,5.596697 -0.96315,7.887438 -0.96316,2.277726 -2.95454,2.277726 -1.96535,0 -2.94152,-2.26471 -0.97617,-2.26471 -0.97617,-7.900454 0,-4.97195 0.91109,-7.536019 0.91109,-2.564068 3.0066,-2.564068 1.96535,0 2.94152,2.316772 0.97617,2.316773 0.97617,7.783315 z m -5.20623,3.839594 q 0,2.134555 0.29936,3.162785 0.31237,1.028231 0.98918,1.028231 0.70284,0 0.98918,-0.976168 0.28635,-0.989184 0.28635,-3.214848 v -7.70522 q 0,-2.238679 -0.31238,-3.162785 -0.31237,-0.937122 -0.96315,-0.937122 -1.28854,0 -1.28854,3.917688 z"
             id="path324" />
          <path
             d="m 171.36602,94.806206 v -6.742068 h 2.38185 v 1.809165 q 0,1.574884 0.32538,2.212647 0.32539,0.637764 1.13236,0.637764 0.62475,0 1.0022,-0.520623 0.39047,-0.520623 0.39047,-1.392667 0,-0.741888 -0.27333,-1.613931 -0.26031,-0.88506 -0.63776,-1.457745 -0.36444,-0.572685 -1.88726,-2.49899 -1.57489,-1.978368 -2.09551,-3.175801 -0.52062,-1.210448 -0.52062,-2.82438 0,-1.926305 0.85903,-3.149769 0.87204,-1.223464 2.22566,-1.223464 1.13235,0 1.97837,0.91109 v -0.585701 h 2.36883 v 5.857009 h -2.36883 v -1.483775 q 0,-1.223465 -0.31238,-1.757103 -0.31237,-0.546654 -0.98918,-0.546654 -1.14537,0 -1.14537,1.444729 0,0.832996 0.3384,1.718056 0.33841,0.872043 1.18442,1.913289 l 1.22346,1.509807 q 2.77232,3.436112 2.77232,6.55985 0,2.043446 -1.0022,3.38405 -0.98918,1.340604 -2.47296,1.340604 -1.21045,0 -2.0955,-0.937121 v 0.611732 z"
             id="path326" />
          <path
             d="M 182.61147,92.437371 V 77.560568 h -1.60091 v -2.368835 h 4.85481 q 2.53804,0 3.96975,1.613932 1.44473,1.613931 1.44473,4.464342 0,2.811364 -1.35362,4.399265 -1.35362,1.5879 -4.54244,1.5879 v 5.180199 h 1.62695 v 2.368835 h -6.00018 v -2.368835 z m 2.77232,-14.876803 v 7.327769 q 0.93712,0 1.53584,-0.195234 0.61173,-0.208249 1.02823,-1.002199 0.4165,-0.79395 0.4165,-2.446928 0,-2.134555 -0.7549,-2.902474 -0.74189,-0.780934 -2.22567,-0.780934 z"
             id="path328" />
          <path
             d="m 192.09983,94.806206 v -2.368835 h 1.44473 V 77.560568 h -1.44473 v -2.368835 h 9.03281 v 5.726853 h -2.36884 v -3.358018 h -2.44692 v 5.948118 h 1.99138 v 2.368835 h -1.99138 v 6.55985 h 2.44692 v -3.657377 h 2.36884 v 6.026212 z"
             id="path330" />
          <path
             d="m 209.34546,87.816842 2.43391,0.67681 q -0.026,3.084691 -1.11933,4.867825 -1.09331,1.770118 -2.99359,1.770118 -2.3428,0 -3.47516,-2.446928 -1.13235,-2.459944 -1.13235,-7.470941 0,-10.347382 3.99578,-10.347382 1.40568,0 2.13456,1.275526 h 0.0521 v -0.950137 h 2.36883 v 6.364617 h -2.36883 q 0,-1.991383 -0.45555,-3.045645 -0.45554,-1.054262 -1.30156,-1.054262 -0.62474,0 -0.91109,0.507608 -0.27332,0.507607 -0.37745,2.017414 -0.10412,1.496791 -0.10412,4.880841 0,4.659576 0.31237,6.169383 0.32539,1.509807 1.31458,1.509807 0.84601,0 1.23647,-1.093309 0.39047,-1.093308 0.39047,-3.631345 z"
             id="path332" />
          <path
             d="m 213.4714,94.806206 v -2.368835 h 1.39267 V 77.560568 h -1.39267 v -2.368835 h 5.28433 v 2.368835 h -1.11934 v 14.876803 h 1.11934 v 2.368835 z m 5.97415,0 v -2.368835 h 1.2495 l -2.82438,-7.757283 2.72025,-7.11952 h -1.19743 v -2.368835 h 4.9329 v 2.368835 h -1.26251 l -2.55105,6.611912 3.0066,8.264891 h 1.28854 v 2.368835 z"
             id="path334" />
        </g>
        <g
           aria-label="Belt Centre"
           transform="scale(1.0033184,0.99669255)"
           id="text3189-0"
           style="font-size:31.7969px;font-family:'Rockwell Condensed';-inkscape-font-specification:'Rockwell Condensed, Normal';fill:#5f3dc4;stroke-width:23.785;stroke-linecap:round;stroke-linejoin:round">
          <path
             d="m 120.29226,121.64362 v -13.49174 h 4.72582 q 2.45557,0 3.72505,0.94516 1.26949,0.9359 1.26949,2.7521 0,0.99149 -0.50965,1.75133 -0.50965,0.75057 -1.41775,1.10269 1.03783,0.25945 1.63087,1.04709 0.60231,0.78764 0.60231,1.92739 0,1.94593 -1.24168,2.94669 -1.24169,1.00076 -3.53973,1.01929 z m 2.77989,-5.87484 v 3.64166 h 2.38144 q 0.98223,0 1.52894,-0.46331 0.55598,-0.47258 0.55598,-1.29729 0,-1.85326 -1.91812,-1.88106 z m 0,-1.96445 h 2.05712 q 2.10345,-0.0371 2.10345,-1.67721 0,-0.91736 -0.53744,-1.31581 -0.52818,-0.40772 -1.6772,-0.40772 h -1.94593 z"
             style="font-weight:bold;font-size:18.9774px;font-family:Roboto;-inkscape-font-specification:'Roboto, Bold'"
             id="path380" />
          <path
             d="m 136.84189,121.82895 q -2.20539,0 -3.59533,-1.35288 -1.38068,-1.35288 -1.38068,-3.6046 v -0.25945 q 0,-1.51041 0.58378,-2.6965 0.58377,-1.19535 1.6494,-1.83473 1.07489,-0.64864 2.4463,-0.64864 2.05712,0 3.23395,1.29728 1.18608,1.29729 1.18608,3.67873 v 1.09342 h -6.38448 q 0.12972,0.98223 0.77837,1.57528 0.6579,0.59304 1.65867,0.59304 1.54747,0 2.4185,-1.12122 l 1.31582,1.47334 q -0.60231,0.8525 -1.63087,1.33435 -1.02856,0.47258 -2.27951,0.47258 z m -0.30579,-8.22848 q -0.79691,0 -1.29729,0.53744 -0.49111,0.53745 -0.6301,1.53821 h 3.72505 V 115.463 q -0.0185,-0.88957 -0.48185,-1.37142 -0.46331,-0.49111 -1.31581,-0.49111 z"
             style="font-weight:bold;font-size:18.9774px;font-family:Roboto;-inkscape-font-specification:'Roboto, Bold'"
             id="path382" />
          <path
             d="m 145.31129,121.64362 h -2.68723 v -14.23305 h 2.68723 z"
             style="font-weight:bold;font-size:18.9774px;font-family:Roboto;-inkscape-font-specification:'Roboto, Bold'"
             id="path384" />
          <path
             d="m 150.72282,109.15264 v 2.46484 h 1.71426 v 1.96445 h -1.71426 v 5.00381 q 0,0.55598 0.21312,0.7969 0.21313,0.24093 0.81544,0.24093 0.44478,0 0.78763,-0.0649 v 2.02933 q -0.78763,0.24092 -1.6216,0.24092 -2.81696,0 -2.87256,-2.84476 v -5.40226 h -1.46407 v -1.96445 h 1.46407 v -2.46484 z"
             style="font-weight:bold;font-size:18.9774px;font-family:Roboto;-inkscape-font-specification:'Roboto, Bold'"
             id="path386" />
          <path
             d="m 169.42223,117.14946 q -0.15753,2.17759 -1.61234,3.42854 -1.44554,1.25095 -3.81772,1.25095 -2.59457,0 -4.08644,-1.74207 -1.48261,-1.75133 -1.48261,-4.79994 v -0.82471 q 0,-1.94592 0.68571,-3.42853 0.6857,-1.48261 1.95519,-2.27025 1.27875,-0.7969 2.96522,-0.7969 2.33511,0 3.76212,1.25095 1.42701,1.25096 1.6494,3.51193 h -2.77989 q -0.10193,-1.30654 -0.73204,-1.89032 -0.62084,-0.59305 -1.89959,-0.59305 -1.38995,0 -2.08492,1.00077 -0.68571,0.99149 -0.70424,3.08568 v 1.01929 q 0,2.18685 0.65791,3.19688 0.66717,1.01002 2.09418,1.01002 1.28802,0 1.91813,-0.58377 0.63937,-0.59305 0.73204,-1.82547 z"
             style="font-weight:bold;font-size:18.9774px;font-family:Roboto;-inkscape-font-specification:'Roboto, Bold'"
             id="path388" />
          <path
             d="m 175.68625,121.82895 q -2.20538,0 -3.59533,-1.35288 -1.38068,-1.35288 -1.38068,-3.6046 v -0.25945 q 0,-1.51041 0.58378,-2.6965 0.58378,-1.19535 1.6494,-1.83473 1.07489,-0.64864 2.44631,-0.64864 2.05712,0 3.23394,1.29728 1.18609,1.29729 1.18609,3.67873 v 1.09342 h -6.38449 q 0.12973,0.98223 0.77837,1.57528 0.65791,0.59304 1.65867,0.59304 1.54747,0 2.41851,-1.12122 l 1.31581,1.47334 q -0.60231,0.8525 -1.63087,1.33435 -1.02856,0.47258 -2.27951,0.47258 z m -0.30579,-8.22848 q -0.7969,0 -1.29728,0.53744 -0.49112,0.53745 -0.63011,1.53821 h 3.72506 V 115.463 q -0.0185,-0.88957 -0.48185,-1.37142 -0.46332,-0.49111 -1.31582,-0.49111 z"
             style="font-weight:bold;font-size:18.9774px;font-family:Roboto;-inkscape-font-specification:'Roboto, Bold'"
             id="path390" />
          <path
             d="m 183.79427,111.61748 0.0834,1.15829 q 1.07489,-1.34362 2.88182,-1.34362 1.5938,0 2.37217,0.9359 0.77837,0.9359 0.79691,2.79842 v 6.47715 h -2.67797 v -6.41228 q 0,-0.8525 -0.37065,-1.23242 -0.37065,-0.38919 -1.23242,-0.38919 -1.13049,0 -1.69573,0.9637 v 7.07019 h -2.67796 v -10.02614 z"
             style="font-weight:bold;font-size:18.9774px;font-family:Roboto;-inkscape-font-specification:'Roboto, Bold'"
             id="path392" />
          <path
             d="m 195.16403,109.15264 v 2.46484 h 1.71427 v 1.96445 h -1.71427 v 5.00381 q 0,0.55598 0.21313,0.7969 0.21312,0.24093 0.81543,0.24093 0.44478,0 0.78764,-0.0649 v 2.02933 q -0.78764,0.24092 -1.62161,0.24092 -2.81695,0 -2.87255,-2.84476 v -5.40226 h -1.46408 v -1.96445 h 1.46408 v -2.46484 z"
             style="font-weight:bold;font-size:18.9774px;font-family:Roboto;-inkscape-font-specification:'Roboto, Bold'"
             id="path394" />
          <path
             d="m 204.00409,114.12865 q -0.54671,-0.0741 -0.9637,-0.0741 -1.51967,0 -1.99225,1.02856 v 6.56054 h -2.67797 v -10.02614 h 2.52971 l 0.0741,1.19535 q 0.80617,-1.38068 2.23318,-1.38068 0.44478,0 0.83396,0.12046 z"
             style="font-weight:bold;font-size:18.9774px;font-family:Roboto;-inkscape-font-specification:'Roboto, Bold'"
             id="path396" />
          <path
             d="m 209.73067,121.82895 q -2.20538,0 -3.59533,-1.35288 -1.38068,-1.35288 -1.38068,-3.6046 v -0.25945 q 0,-1.51041 0.58378,-2.6965 0.58378,-1.19535 1.6494,-1.83473 1.07489,-0.64864 2.44631,-0.64864 2.05712,0 3.23394,1.29728 1.18609,1.29729 1.18609,3.67873 v 1.09342 h -6.38449 q 0.12973,0.98223 0.77837,1.57528 0.65791,0.59304 1.65867,0.59304 1.54747,0 2.4185,-1.12122 l 1.31582,1.47334 q -0.60231,0.8525 -1.63087,1.33435 -1.02856,0.47258 -2.27951,0.47258 z m -0.30579,-8.22848 q -0.7969,0 -1.29728,0.53744 -0.49112,0.53745 -0.63011,1.53821 h 3.72505 V 115.463 q -0.0185,-0.88957 -0.48184,-1.37142 -0.46332,-0.49111 -1.31582,-0.49111 z"
             style="font-weight:bold;font-size:18.9774px;font-family:Roboto;-inkscape-font-specification:'Roboto, Bold'"
             id="path398" />
        </g>
        <rect
           style="fill:#323232;fill-opacity:1;stroke:none;stroke-width:19;stroke-linecap:round;stroke-linejoin:round;stroke-dasharray:none;stroke-opacity:1"
           id="rect3478"
           width="97.188141"
           height="2.1742313"
           x="118.71304"
           y="102.62372" />
      </g>
    </g>
  </g>
</svg>
