<svg width="72" height="73" viewBox="0 0 72 73" fill="none" xmlns="http://www.w3.org/2000/svg">
<g id="iconmonstr-pen" clip-path="url(#clip0_349_8)">
<path id="Vector" d="M36 0.213318C16.119 0.213318 0 16.3323 0 36.2133C0 56.0943 16.119 72.2133 36 72.2133C55.881 72.2133 72 56.0943 72 36.2133C72 16.3323 55.881 0.213318 36 0.213318ZM33.018 27.4983L41.94 18.8463C42.372 18.4263 42.933 18.2133 43.488 18.2133C44.052 18.2133 44.613 18.4323 45.042 18.8733L32.946 30.6063C32.097 29.7243 32.142 28.3503 33.018 27.4983ZM19.548 53.9553C19.368 54.1263 19.14 54.2133 18.912 54.2133C18.408 54.2133 18 53.8023 18 53.3013C18 53.0643 18.093 52.8243 18.279 52.6473L19.779 51.1923L21.045 52.5003L19.548 53.9553ZM31.65 46.7973C28.893 49.4703 26.262 50.7963 22.611 51.9813L20.349 49.6443C21.648 46.0293 23.052 43.4433 25.806 40.7703L30.936 35.7993L36.774 41.8263L31.65 46.7973ZM52.545 27.3483L39.339 40.1553L32.685 33.2853L45.891 20.4753C48.939 17.5233 54 19.7373 54 23.9133C54 25.1613 53.514 26.4093 52.545 27.3483Z" fill="#5A096E"/>
</g>
<defs>
<clipPath id="clip0_349_8">
<rect width="72" height="72" fill="white" transform="translate(0 0.213318)"/>
</clipPath>
</defs>
</svg>
