<svg width="72" height="73" viewBox="0 0 72 73" fill="none" xmlns="http://www.w3.org/2000/svg">
<g id="iconmonstr-construction" clip-path="url(#clip0_349_15)">
<path id="Vector" fill-rule="evenodd" clip-rule="evenodd" d="M6.534 33.2733H3V26.6463C4.404 26.6463 5.322 25.2243 5.832 23.6553C7.593 18.2463 10.602 10.1163 18 5.01927V15.2733C18 16.9293 19.344 18.2733 21 18.2733C22.656 18.2733 24 16.9293 24 15.2733V1.96228C26.604 1.03528 29.583 0.414275 33 0.207275V9.27327C33 10.9293 34.344 12.2733 36 12.2733C37.656 12.2733 39 10.9293 39 9.27327V0.273275C42.402 0.555275 45.384 1.25428 48 2.25628V15.2733C48 16.9293 49.344 18.2733 51 18.2733C52.656 18.2733 54 16.9293 54 15.2733V5.46627C61.173 10.5663 64.389 18.3783 66.171 23.6553C66.696 25.2153 67.596 26.6463 69 26.6463V33.2733H65.463C67.188 34.6503 69 37.3533 69 42.6663C69 47.5563 66.288 53.7243 60.369 56.2593C53.91 66.5943 45.288 72.2733 36 72.2733C26.712 72.2733 18.09 66.5943 11.628 56.2593C5.709 53.7243 3 47.5563 3 42.6663C3 37.3533 4.809 34.6503 6.534 33.2733ZM42.6 55.6503H29.4C29.412 55.6863 31.278 60.8703 36 60.8703C40.902 60.8703 42.588 55.6863 42.6 55.6503ZM56.151 33.2733H15.846L15.807 34.8183C15.807 36.8223 13.761 38.1603 11.943 37.3503C11.436 37.1253 10.653 37.1313 10.092 37.4973C7.341 39.3003 7.635 49.0893 14.367 51.3843C17.115 52.3233 21.459 60.6933 26.157 52.5783C27.783 49.7763 32.91 49.4613 36 51.6873C39.087 49.4613 44.217 49.7763 45.84 52.5783C50.538 60.6933 54.882 52.3233 57.63 51.3843C64.362 49.0893 64.656 39.3003 61.905 37.4973C61.26 37.0773 60.444 37.1793 60.057 37.3503C58.239 38.1633 56.19 36.8223 56.19 34.8183L56.151 33.2733ZM27.063 36.2613C25.161 36.2613 23.625 38.1213 23.625 40.4163C23.625 42.7113 25.161 44.5713 27.063 44.5713C28.959 44.5713 30.501 42.7113 30.501 40.4163C30.501 38.1213 28.959 36.2613 27.063 36.2613ZM48.375 40.4163C48.375 42.7113 46.836 44.5713 44.937 44.5713C43.038 44.5713 41.499 42.7113 41.499 40.4163C41.499 38.1213 43.038 36.2613 44.937 36.2613C46.836 36.2613 48.375 38.1213 48.375 40.4163Z" fill="#5A096E"/>
</g>
<defs>
<clipPath id="clip0_349_15">
<rect width="72" height="72" fill="white" transform="translate(0 0.273315)"/>
</clipPath>
</defs>
</svg>
