<svg width="72" height="73" viewBox="0 0 72 73" fill="none" xmlns="http://www.w3.org/2000/svg">
<g id="iconmonstr-cloud" clip-path="url(#clip0_349_4)">
<path id="Vector" fill-rule="evenodd" clip-rule="evenodd" d="M44.436 60.7263C42.063 62.2953 39.222 63.2133 36.165 63.2133C27.885 63.2133 21.165 56.4933 21.165 48.2133C21.165 39.9333 27.885 33.2133 36.165 33.2133C44.445 33.2133 51.165 39.9333 51.165 48.2133C51.165 51.2703 50.247 54.1113 48.678 56.4843L57.165 64.9713L52.923 69.2133L44.436 60.7263ZM17.187 57.2133C6.603 57.2133 0 49.2633 0 40.7133C0 32.6073 5.856 25.8783 13.563 24.4893C14.199 12.6363 23.985 3.21332 36 3.21332C48.018 3.21332 57.801 12.6363 58.437 24.4893C66.147 25.8783 72 32.6073 72 40.7133C72 49.3563 65.217 57.2133 55.14 57.2133C56.439 54.4863 57.165 51.4323 57.165 48.2133C57.165 36.6243 47.754 27.2133 36.165 27.2133C24.573 27.2133 15.165 36.6243 15.165 48.2133C15.165 51.4323 15.891 54.4863 17.187 57.2133ZM36.165 39.2133C41.13 39.2133 45.165 43.2483 45.165 48.2133C45.165 53.1783 41.13 57.2133 36.165 57.2133C31.197 57.2133 27.165 53.1783 27.165 48.2133C27.165 43.2483 31.197 39.2133 36.165 39.2133Z" fill="#5A096E"/>
</g>
<defs>
<clipPath id="clip0_349_4">
<rect width="72" height="72" fill="white" transform="translate(0 0.213318)"/>
</clipPath>
</defs>
</svg>
