<svg width="72" height="73" viewBox="0 0 72 73" fill="none" xmlns="http://www.w3.org/2000/svg">
<g clip-path="url(#clip0_349_2)">
<path d="M57 0.213318H15C6.717 0.213318 0 6.93032 0 15.2133V57.2133C0 65.4963 6.717 72.2133 15 72.2133H57C65.286 72.2133 72 65.4963 72 57.2133V15.2133C72 6.93032 65.286 0.213318 57 0.213318ZM33 30.8103L22.08 36.2133L33 41.6013V48.2133L15 39.4083V33.0153L33 24.2133V30.8103ZM57 39.4083L39 48.2133V41.6013L49.92 36.2133L39 30.8103V24.2133L57 33.0183V39.4083Z" fill="#5A096E"/>
</g>
<defs>
<clipPath id="clip0_349_2">
<rect width="72" height="72" fill="white" transform="translate(0 0.213318)"/>
</clipPath>
</defs>
</svg>
