<svg width="72" height="73" viewBox="0 0 72 73" fill="none" xmlns="http://www.w3.org/2000/svg">
<g id="iconmonstr-dashboard-alt-filled">
<path id="Vector" d="M63 12.2733C63 10.8393 61.863 9.27332 60 9.27332H12C10.14 9.27332 9 10.8303 9 12.2733V60.2733C9 62.1363 10.56 63.2733 12 63.2733H60C61.434 63.2733 63 62.1363 63 60.2733V12.2733ZM54 40.7733V52.7733C54 53.6013 53.328 54.2733 52.5 54.2733H40.5C39.672 54.2733 39 53.6013 39 52.7733V40.7733C39 39.9453 39.672 39.2733 40.5 39.2733H52.5C53.328 39.2733 54 39.9453 54 40.7733ZM23.817 46.7433L20.163 43.0893C19.32 42.2463 19.317 40.7523 20.163 39.9063C21.009 39.0603 22.503 39.0633 23.346 39.9063L27 43.5603L30.654 39.9063C31.497 39.0633 32.991 39.0603 33.837 39.9063C34.683 40.7523 34.68 42.2463 33.837 43.0893L30.183 46.7433L33.837 50.3973C34.68 51.2403 34.683 52.7343 33.837 53.5803C32.991 54.4263 31.497 54.4233 30.654 53.5803L27 49.9263L23.346 53.5803C22.503 54.4233 21.009 54.4263 20.163 53.5803C19.317 52.7343 19.32 51.2403 20.163 50.3973L23.817 46.7433ZM49.5 43.7733H43.5V49.7733H49.5V43.7733ZM27 18.2733C31.968 18.2733 36 22.3053 36 27.2733C36 32.2413 31.968 36.2733 27 36.2733C22.032 36.2733 18 32.2413 18 27.2733C18 22.3053 22.032 18.2733 27 18.2733ZM54 34.0233C54 35.2203 52.941 36.2733 51.75 36.2733C48.291 36.2733 44.709 36.2733 41.25 36.2733C40.059 36.2733 39 35.2203 39 34.0233C39 32.8263 40.059 31.7733 41.25 31.7733H51.75C52.941 31.7733 54 32.8263 54 34.0233ZM27 22.7733C29.484 22.7733 31.5 24.7893 31.5 27.2733C31.5 29.7573 29.484 31.7733 27 31.7733C24.516 31.7733 22.5 29.7573 22.5 27.2733C22.5 24.7893 24.516 22.7733 27 22.7733ZM54 27.2733C54 28.4703 52.941 29.5233 51.75 29.5233C48.291 29.5233 44.709 29.5233 41.25 29.5233C40.059 29.5233 39 28.4703 39 27.2733C39 26.0763 40.059 25.0233 41.25 25.0233H51.75C52.941 25.0233 54 26.0763 54 27.2733ZM54 20.5233C54 21.7203 52.941 22.7733 51.75 22.7733C48.291 22.7733 44.709 22.7733 41.25 22.7733C40.059 22.7733 39 21.7203 39 20.5233C39 19.3263 40.059 18.2733 41.25 18.2733H51.75C52.941 18.2733 54 19.3263 54 20.5233Z" fill="#5A096E"/>
</g>
</svg>
