<svg width="72" height="73" viewBox="0 0 72 73" fill="none" xmlns="http://www.w3.org/2000/svg">
<g id="iconmonstr-friend" clip-path="url(#clip0_349_17)">
<path id="Vector" fill-rule="evenodd" clip-rule="evenodd" d="M14.343 72.2733C12.534 72.2733 11.049 70.8483 10.971 69.0363C10.584 59.6763 9.495 33.1863 9.495 33.1863L4.347 42.5043C3.789 43.5213 2.568 43.9623 1.488 43.5453L1.485 43.5423C0.573 43.1883 0 42.3213 0 41.3823L0.087 40.7523L5.064 23.1843C5.553 21.4623 7.125 20.2743 8.916 20.2743H63.084C64.875 20.2743 66.447 21.4623 66.936 23.1843L71.913 40.7523L72 41.3823C72 42.3213 71.427 43.1883 70.515 43.5423L70.512 43.5453C69.432 43.9623 68.211 43.5213 67.653 42.5043L62.505 33.1863C62.505 33.1863 61.416 59.6763 61.029 69.0363C60.951 70.8483 59.469 72.2733 57.66 72.2733C55.887 72.2733 54.432 70.8963 54.297 69.1323C53.991 65.2413 53.175 55.9323 52.929 52.2483C52.827 50.7183 51.708 49.8183 50.493 49.8183C49.404 49.8183 48.18 50.7183 48.081 52.2483C47.832 55.9323 47.016 65.2413 46.713 69.1323C46.575 70.8963 45.123 72.2733 43.353 72.2733H43.347C41.541 72.2733 40.056 70.8483 39.981 69.0363C39.591 59.6763 38.049 30.2733 38.049 30.2733H34.005C34.005 30.2733 32.409 59.6763 32.019 69.0363C31.944 70.8483 30.459 72.2733 28.653 72.2733H28.647C26.877 72.2733 25.425 70.8963 25.287 69.1323C24.984 65.2413 24.168 55.9323 23.919 52.2483C23.82 50.7183 22.596 49.8183 21.507 49.8183C20.292 49.8183 19.173 50.7183 19.071 52.2483C18.825 55.9323 18.009 65.2413 17.703 69.1323C17.568 70.8963 16.116 72.2733 14.343 72.2733ZM21.495 0.273315C26.463 0.273315 30.495 4.30532 30.495 9.27332C30.495 14.2413 26.463 18.2733 21.495 18.2733C16.53 18.2733 12.495 14.2413 12.495 9.27332C12.495 4.30532 16.53 0.273315 21.495 0.273315ZM50.505 0.273315C45.537 0.273315 41.505 4.30532 41.505 9.27332C41.505 14.2413 45.537 18.2733 50.505 18.2733C55.47 18.2733 59.505 14.2413 59.505 9.27332C59.505 4.30532 55.47 0.273315 50.505 0.273315Z" fill="#5A096E"/>
</g>
<defs>
<clipPath id="clip0_349_17">
<rect width="72" height="72" fill="white" transform="translate(0 0.273315)"/>
</clipPath>
</defs>
</svg>
