<?xml version="1.0" encoding="UTF-8" standalone="no"?>
<!-- Created with Inkscape (http://www.inkscape.org/) -->

<svg
   width="220.36781"
   height="40"
   viewBox="0 0 58.305648 10.583333"
   version="1.1"
   id="svg5"
   xml:space="preserve"
   sodipodi:docname="roofing-logo.svg"
   inkscape:version="1.2.1 (9c6d41e410, 2022-07-14)"
   xmlns:inkscape="http://www.inkscape.org/namespaces/inkscape"
   xmlns:sodipodi="http://sodipodi.sourceforge.net/DTD/sodipodi-0.dtd"
   xmlns="http://www.w3.org/2000/svg"
   xmlns:svg="http://www.w3.org/2000/svg"><sodipodi:namedview
     id="namedview7"
     pagecolor="#ffffff"
     bordercolor="#000000"
     borderopacity="0.25"
     inkscape:showpageshadow="2"
     inkscape:pageopacity="0.0"
     inkscape:pagecheckerboard="0"
     inkscape:deskcolor="#d1d1d1"
     inkscape:document-units="mm"
     showgrid="false"
     inkscape:zoom="4.8676206"
     inkscape:cx="12.942669"
     inkscape:cy="29.994121"
     inkscape:window-width="1600"
     inkscape:window-height="837"
     inkscape:window-x="-8"
     inkscape:window-y="-8"
     inkscape:window-maximized="1"
     inkscape:current-layer="layer1" /><defs
     id="defs2" /><g
     inkscape:label="Layer 1"
     inkscape:groupmode="layer"
     id="layer1"
     transform="translate(-53.776909,-122.05049)"><g
       style="clip-rule:evenodd;fill-rule:evenodd"
       id="g289"
       transform="matrix(0.5065166,0,0,0.5065166,52.167222,117.6871)"><path
         d="m 12.462239,8.6145135 9.284281,6.7704615 -0.815449,1.013391 -3.37971,-2.375199 -5.089122,-3.711116 -8.4643961,6.067208 -0.8198875,-0.994284 z"
         id="path280"
         sodipodi:nodetypes="cccccccc"
         style="fill:#5a096e;fill-opacity:1;stroke-width:0.700965" /><text
         xml:space="preserve"
         style="font-style:normal;font-variant:normal;font-weight:normal;font-stretch:normal;font-size:26.6667px;font-family:'Gill Sans MT Condensed';-inkscape-font-specification:'Gill Sans MT Condensed, Normal';font-variant-ligatures:normal;font-variant-caps:normal;font-variant-numeric:normal;font-variant-east-asian:normal;fill:#323232;fill-opacity:1;stroke-width:5;stroke-linecap:round;stroke-linejoin:round"
         x="24.018036"
         y="29.274485"
         id="text911"><tspan
           sodipodi:role="line"
           id="tspan909"
           x="24.018036"
           y="29.274485"
           style="font-style:normal;font-variant:normal;font-weight:normal;font-stretch:normal;font-size:26.6667px;font-family:'Gill Sans MT Condensed';-inkscape-font-specification:'Gill Sans MT Condensed, Normal';font-variant-ligatures:normal;font-variant-caps:normal;font-variant-numeric:normal;font-variant-east-asian:normal;fill:#323232;fill-opacity:1">AVIC NDUGU</tspan></text></g><g
       style="clip-rule:evenodd;fill-rule:evenodd"
       id="g466"
       transform="matrix(0.32167253,0,0,0.32167253,54.531038,124.90789)"><path
         d="M 12,0 C 18.623,0 24,5.377 24,12 24,18.623 18.623,24 12,24 5.377,24 0,18.623 0,12 0,5.377 5.377,0 12,0 m 2.557,16 H 9.442 c 0.546,2.46 1.441,4.114 2.558,5.744 1.194,-1.741 2.041,-3.41 2.557,-5.744 M 7.4,16 H 2.833 c 1.236,2.825 3.704,4.972 6.755,5.716 C 8.54,19.983 7.805,18.058 7.4,16 m 13.767,0 H 16.6 c -0.391,1.988 -1.095,3.887 -2.175,5.694 3.012,-0.763 5.517,-2.895 6.742,-5.694 M 7.162,10 H 2.2 c -0.267,1.313 -0.267,2.685 0,4 H 7.115 C 6.996,12.671 7.014,11.328 7.162,10 m 7.661,0 H 9.176 c -0.165,1.326 -0.185,2.672 -0.053,4 h 5.753 c 0.133,-1.328 0.111,-2.673 -0.053,-4 m 6.977,0 h -4.963 c 0.148,1.328 0.166,2.671 0.048,4 H 21.8 c 0.26,-1.285 0.273,-2.648 0,-4 M 9.644,2.271 C 6.567,3.003 4.077,5.157 2.833,8 H 7.486 C 7.921,5.958 8.664,4.015 9.644,2.271 M 11.999,2.223 C 10.91,3.993 10.089,5.676 9.536,8 h 4.927 C 13.929,5.754 13.126,4.052 11.999,2.223 m 2.368,0.069 C 15.38,4.104 16.1,6.052 16.513,8 h 4.654 C 19.935,5.184 17.405,3.042 14.367,2.292"
         id="path457"
         style="fill:#5a096e;fill-opacity:1" /></g></g></svg>
